HIERARCHY
ROOT hips_JNT
{
    OFFSET 0 0 0
    CHANNELS 6 Xposition Yposition Zposition Zrotation Xrotation Yrotation
    JOINT spine_JNT
    {
        OFFSET 0.000238189 9.31981 0.981874
        CHANNELS 3 Zrotation Xrotation Yrotation
        JOINT spine1_JNT
        {
            OFFSET -0.000662443 10.8731 -0.29512
            CHANNELS 3 Zrotation Xrotation Yrotation
            JOINT spine2_JNT
            {
                OFFSET 0 12.4264 -2.81409
                CHANNELS 3 Zrotation Xrotation Yrotation
                JOINT neck_JNT
                {
                    OFFSET 0 13.3255 -2.74093
                    CHANNELS 3 Zrotation Xrotation Yrotation
                    JOINT head_JNT
                    {
                        OFFSET 0 9.77181 1.36447
                        CHANNELS 3 Zrotation Xrotation Yrotation
                        End Site
                        {
                            OFFSET 0 0 0
                        }
                    }
                }
                JOINT l_shoulder_JNT
                {
                    OFFSET 4.39914 12.861 -2.76546
                    CHANNELS 3 Zrotation Xrotation Yrotation
                    JOINT l_arm_JNT
                    {
                        OFFSET 8.75735 -2.31198 0.0984192
                        CHANNELS 3 Zrotation Xrotation Yrotation
                        JOINT l_forearm_JNT
                        {
                            OFFSET 28.388 -5.96046e-05 0
                            CHANNELS 3 Zrotation Xrotation Yrotation
                            JOINT l_hand_JNT
                            {
                                OFFSET 21.0806 -4.76837e-05 -0.147462
                                CHANNELS 3 Zrotation Xrotation Yrotation
                                JOINT l_handThumb1_JNT
                                {
                                    OFFSET 4.23706 -0.388229 1.56239
                                    CHANNELS 3 Zrotation Xrotation Yrotation
                                    JOINT l_handThumb2_JNT
                                    {
                                        OFFSET 3.39355 -1.00842 1.0397
                                        CHANNELS 3 Zrotation Xrotation Yrotation
                                        JOINT l_handThumb3_JNT
                                        {
                                            OFFSET 2.16718 -0.67445 0.580491
                                            CHANNELS 3 Zrotation Xrotation Yrotation
                                            End Site
                                            {
                                                OFFSET 0 0 0
                                            }
                                        }
                                    }
                                }
                                JOINT l_handIndex1_JNT
                                {
                                    OFFSET 10.9609 -0.0328541 1.49257
                                    CHANNELS 3 Zrotation Xrotation Yrotation
                                    JOINT l_handIndex2_JNT
                                    {
                                        OFFSET 2.75512 -0.0654578 -0.0778204
                                        CHANNELS 3 Zrotation Xrotation Yrotation
                                        JOINT l_handIndex3_JNT
                                        {
                                            OFFSET 2.35416 -0.0430465 -0.064495
                                            CHANNELS 3 Zrotation Xrotation Yrotation
                                            End Site
                                            {
                                                OFFSET 0 0 0
                                            }
                                        }
                                    }
                                }
                                JOINT l_handMiddle1_JNT
                                {
                                    OFFSET 10.5711 0.0581741 0.129442
                                    CHANNELS 3 Zrotation Xrotation Yrotation
                                    JOINT l_handMiddle2_JNT
                                    {
                                        OFFSET 3.84908 -0.132298 -0.195131
                                        CHANNELS 3 Zrotation Xrotation Yrotation
                                        JOINT l_handMiddle3_JNT
                                        {
                                            OFFSET 2.33086 -0.0176787 6.29574e-05
                                            CHANNELS 3 Zrotation Xrotation Yrotation
                                            End Site
                                            {
                                                OFFSET 0 0 0
                                            }
                                        }
                                    }
                                }
                                JOINT l_handRing1_JNT
                                {
                                    OFFSET 9.91753 0.0666022 -1.2717
                                    CHANNELS 3 Zrotation Xrotation Yrotation
                                    JOINT l_handRing2_JNT
                                    {
                                        OFFSET 3.28143 -0.130188 -0.0192598
                                        CHANNELS 3 Zrotation Xrotation Yrotation
                                        JOINT l_handRing3_JNT
                                        {
                                            OFFSET 2.24263 -0.0529766 5.99772e-05
                                            CHANNELS 3 Zrotation Xrotation Yrotation
                                            End Site
                                            {
                                                OFFSET 0 0 0
                                            }
                                        }
                                    }
                                }
                                JOINT l_handPinky1_JNT
                                {
                                    OFFSET 8.94417 -0.0581622 -2.50741
                                    CHANNELS 3 Zrotation Xrotation Yrotation
                                    JOINT l_handPinky2_JNT
                                    {
                                        OFFSET 2.52914 0 -9.68575e-06
                                        CHANNELS 3 Zrotation Xrotation Yrotation
                                        JOINT l_handPinky3_JNT
                                        {
                                            OFFSET 1.94855 -0.0603914 -5.21541e-06
                                            CHANNELS 3 Zrotation Xrotation Yrotation
                                            End Site
                                            {
                                                OFFSET 0 0 0
                                            }
                                        }
                                    }
                                }
                            }
                        }
                    }
                }
                JOINT r_shoulder_JNT
                {
                    OFFSET -4.39914 12.8606 -2.76546
                    CHANNELS 3 Zrotation Xrotation Yrotation
                    JOINT r_arm_JNT
                    {
                        OFFSET -8.7573 -2.312 0.0984199
                        CHANNELS 3 Zrotation Xrotation Yrotation
                        JOINT r_forearm_JNT
                        {
                            OFFSET -28.3881 0 0
                            CHANNELS 3 Zrotation Xrotation Yrotation
                            JOINT r_hand_JNT
                            {
                                OFFSET -21.0806 0 -0.14746
                                CHANNELS 3 Zrotation Xrotation Yrotation
                                JOINT r_handThumb1_JNT
                                {
                                    OFFSET -4.237 -0.388002 1.56239
                                    CHANNELS 3 Zrotation Xrotation Yrotation
                                    JOINT r_handThumb2_JNT
                                    {
                                        OFFSET -3.3936 -1.008 1.0397
                                        CHANNELS 3 Zrotation Xrotation Yrotation
                                        JOINT r_handThumb3_JNT
                                        {
                                            OFFSET -2.1672 -0.674999 0.58049
                                            CHANNELS 3 Zrotation Xrotation Yrotation
                                            End Site
                                            {
                                                OFFSET 0 0 0
                                            }
                                        }
                                    }
                                }
                                JOINT r_handIndex1_JNT
                                {
                                    OFFSET -10.9609 -0.0329971 1.49257
                                    CHANNELS 3 Zrotation Xrotation Yrotation
                                    JOINT r_handIndex2_JNT
                                    {
                                        OFFSET -2.7551 -0.0650048 -0.07782
                                        CHANNELS 3 Zrotation Xrotation Yrotation
                                        JOINT r_handIndex3_JNT
                                        {
                                            OFFSET -2.3541 -0.0429988 -0.0644999
                                            CHANNELS 3 Zrotation Xrotation Yrotation
                                            End Site
                                            {
                                                OFFSET 0 0 0
                                            }
                                        }
                                    }
                                }
                                JOINT r_handMiddle1_JNT
                                {
                                    OFFSET -10.5711 0.0579953 0.12944
                                    CHANNELS 3 Zrotation Xrotation Yrotation
                                    JOINT r_handMiddle2_JNT
                                    {
                                        OFFSET -3.8491 -0.132 -0.19513
                                        CHANNELS 3 Zrotation Xrotation Yrotation
                                        JOINT r_handMiddle3_JNT
                                        {
                                            OFFSET -2.3308 -0.0169992 5.99772e-05
                                            CHANNELS 3 Zrotation Xrotation Yrotation
                                            End Site
                                            {
                                                OFFSET 0 0 0
                                            }
                                        }
                                    }
                                }
                                JOINT r_handRing1_JNT
                                {
                                    OFFSET -9.9175 0.0669956 -1.27171
                                    CHANNELS 3 Zrotation Xrotation Yrotation
                                    JOINT r_handRing2_JNT
                                    {
                                        OFFSET -3.2814 -0.129998 -0.0192601
                                        CHANNELS 3 Zrotation Xrotation Yrotation
                                        JOINT r_handRing3_JNT
                                        {
                                            OFFSET -2.2427 -0.0530005 5.99772e-05
                                            CHANNELS 3 Zrotation Xrotation Yrotation
                                            End Site
                                            {
                                                OFFSET 0 0 0
                                            }
                                        }
                                    }
                                }
                                JOINT r_handPinky1_JNT
                                {
                                    OFFSET -8.9441 -0.0579953 -2.50741
                                    CHANNELS 3 Zrotation Xrotation Yrotation
                                    JOINT r_handPinky2_JNT
                                    {
                                        OFFSET -2.5292 0 -9.68575e-06
                                        CHANNELS 3 Zrotation Xrotation Yrotation
                                        JOINT r_handPinky3_JNT
                                        {
                                            OFFSET -1.9485 -0.059998 -9.68575e-06
                                            CHANNELS 3 Zrotation Xrotation Yrotation
                                            End Site
                                            {
                                                OFFSET 0 0 0
                                            }
                                        }
                                    }
                                }
                            }
                        }
                    }
                }
            }
        }
    }
    JOINT l_upleg_JNT
    {
        OFFSET 8.40027 -5.30028 -0.989984
        CHANNELS 3 Zrotation Xrotation Yrotation
        JOINT l_leg_JNT
        {
            OFFSET 1.31259 -45.2396 -0.649571
            CHANNELS 3 Zrotation Xrotation Yrotation
            JOINT l_foot_JNT
            {
                OFFSET 0.349144 -42.5608 -1.59433
                CHANNELS 3 Zrotation Xrotation Yrotation
                JOINT l_toebase_JNT
                {
                    OFFSET 0.0702709 -8.1272 12.8887
                    CHANNELS 3 Zrotation Xrotation Yrotation
                    End Site
                    {
                        OFFSET 0 0 0
                    }
                }
            }
        }
    }
    JOINT r_upleg_JNT
    {
        OFFSET -8.39971 -5.3012 -0.990156
        CHANNELS 3 Zrotation Xrotation Yrotation
        JOINT r_leg_JNT
        {
            OFFSET -1.3127 -45.2404 -0.649775
            CHANNELS 3 Zrotation Xrotation Yrotation
            JOINT r_foot_JNT
            {
                OFFSET -0.349179 -42.5583 -1.59375
                CHANNELS 3 Zrotation Xrotation Yrotation
                JOINT r_toebase_JNT
                {
                    OFFSET -0.0702716 -8.12718 12.7926
                    CHANNELS 3 Zrotation Xrotation Yrotation
                    End Site
                    {
                        OFFSET 0 0 0
                    }
                }
            }
        }
    }
}
MOTION
Frames: 8
Frame Time: 0.033333
49.2889 86.1826 20.1348 -1.35701 11.5379 -32.7912 5.20002 0.00945187 0 1.74651 1.7938 -11.0515 -0 0 0 3.19457 7.94033 -2.41024 5.69822 -2.9096 0.0884693 4.26887e-07 -1.86763e-06 0 -37.3179 3.76874 21.8546 -12.875 3.21877 -27.9662 -6.83019e-06 1.70755e-06 0 4.10661 20.7048 -22.2077 -0 0 0 -14.7862 -0.189765 1.4623 -23.3618 6.78408 1.40386 -30.1262 8.5628 2.30839 -19.9995 5.85826 1.034 -27.2812 5.23775 1.27286 -35.1371 6.56625 2.08085 -23.3666 4.53535 0.937944 -31.083 -2.95544 -0.822338 -39.9857 -3.67675 -1.33762 -26.6363 -2.567 -0.606516 -34.153 -6.40639 -1.96993 -44.0229 -7.9128 -3.20313 -29.2417 -5.58002 -1.4564 4.26887e-07 -1.86763e-06 0 -20.6601 -10.1465 49.9097 -4.13363 -0.153154 4.24124 -0 0 0 -4.10661 20.7048 22.2077 -0 0 0 6.67495 0.0388388 0.665582 10.5054 3.13088 -0.29074 13.5157 4.01066 -0.476422 9.00229 2.68761 -0.213062 12.2866 2.43706 -0.262442 15.8032 3.11764 -0.43341 10.5297 2.09317 -0.193827 14.0205 -1.38782 0.167859 18.0286 -1.77269 0.276953 12.0169 -1.19273 0.118694 15.3634 -3.03316 0.407344 19.7649 -3.86915 0.676083 13.1654 -2.60817 0.296075 31.6195 -18.0673 19.4145 -1.16766 64.7907 0.328649 0.454025 0.143811 0.760014 -5.66731 -46.0033 -13.2849 -58.7151 -47.1584 -70.0146 -4.30303 68.504 2.93081 5.54953e-06 -5.54953e-06 0.0559529 4.26887e-07 9.93923e-17 0 
48.5042 85.9527 19.4988 -1.14371 11.5785 -32.8515 5.33704 0.00941691 0 1.73218 1.80267 -10.7772 -4.26887e-07 -1.06722e-07 0 3.41605 7.50124 -2.57145 4.27407 -2.79828 0.0791294 -8.53774e-07 2.13443e-07 0 -36.402 3.98474 20.6799 -13.4684 3.14676 -26.1907 -1.02453e-05 -1.36604e-05 0 4.10661 20.7048 -22.2077 -0 0 0 -14.6892 -0.187298 1.45263 -23.2072 6.74206 1.3859 -29.9257 8.51187 2.2787 -19.8675 5.8214 1.02028 -27.1013 5.20601 1.25615 -34.9047 6.52867 2.05435 -23.2127 4.50726 0.926188 -30.8788 -2.93798 -0.811801 -39.7227 -3.65665 -1.32173 -26.4614 -2.55138 -0.600029 -33.9272 -6.36943 -1.94514 -43.7307 -7.87146 -3.1628 -29.0487 -5.54663 -1.43801 -8.53774e-07 2.13443e-07 0 -21.0179 -10.1326 49.1318 -4.04867 -0.15377 4.34806 1.28066e-06 -3.62854e-06 0 -4.10661 20.7048 22.2077 -0 0 0 6.66739 0.0387511 0.665582 10.4935 3.12738 -0.288035 13.5004 4.0062 -0.476422 8.99209 2.6846 -0.216705 12.2727 2.43435 -0.265408 15.7853 3.11421 -0.4316 10.5178 2.09083 -0.193827 14.0046 -1.38629 0.176939 18.0082 -1.77075 0.279765 12.0033 -1.1914 0.131221 15.346 -3.02981 0.40926 19.7425 -3.86495 0.674924 13.1505 -2.60527 0.301316 32.3702 -18.0836 19.9688 -1.17353 64.6429 0.181308 0.345515 0.121219 0.836493 -5.58824 -45.3214 -13.3185 -59.7521 -47.903 -70.6485 -3.83117 66.7919 2.52631 -5.33609e-06 -4.26887e-07 0 6.4033e-07 -1.70755e-06 0 
47.5585 85.6462 18.685 -0.871356 11.5197 -32.8356 5.36249 0.00875712 0.0395647 1.70812 1.81336 -10.3993 9.93923e-17 -8.53774e-07 0 3.79412 7.17915 -2.85203 2.47012 -3.03526 0.0559529 9.93923e-17 -8.53774e-07 0 -35.3605 4.20242 19.3336 -14.0187 3.03375 -24.309 -1.70755e-06 3.41509e-06 0 4.10661 20.7048 -22.2077 -0 0 0 -14.5798 -0.184533 1.44182 -23.0328 6.69459 1.36599 -29.6996 8.4543 2.24514 -19.7185 5.77977 1.0056 -26.8983 5.17014 1.23731 -34.6425 6.48615 2.0248 -23.0391 4.47552 0.912567 -30.6484 -2.91823 -0.800148 -39.4261 -3.63387 -1.30204 -26.264 -2.53373 -0.592151 -33.6725 -6.32761 -1.91595 -43.401 -7.82458 -3.11793 -28.831 -5.50888 -1.41718 9.93923e-17 -8.53774e-07 0 -21.433 -10.0471 48.0042 -3.84148 -0.154622 4.60769 -0 0 0 -4.10661 20.7048 22.2077 -0 0 0 6.65335 0.0385882 0.663226 10.4714 3.12087 -0.288035 13.4719 3.99792 -0.473125 8.97312 2.67899 -0.209357 12.2468 2.4293 -0.256409 15.752 3.10781 -0.4316 10.4956 2.08648 -0.193827 13.9751 -1.38342 0.172458 17.9702 -1.76714 0.279765 11.978 -1.18893 0.118694 15.3136 -3.02358 0.405418 19.7008 -3.85713 0.670269 13.1227 -2.59988 0.296075 33.1777 -18.1263 20.5353 -1.17124 64.4957 0.131221 0.310299 0.108685 0.862294 -5.49584 -44.4508 -13.3818 -60.6835 -48.5159 -71.1766 -3.27406 64.3183 2.05853 -2.88149e-06 1.79292e-05 0 5.33608e-07 1.28066e-06 0 
46.31 85.194 17.6773 -0.590334 11.3615 -32.6864 5.26209 0.00832034 0 1.67021 1.82553 -9.92374 -4.26887e-07 1.06722e-07 0 4.43149 7.10149 -3.33061 0.304493 -3.68909 0 -4.26887e-07 1.06722e-07 0 -34.0879 4.33995 17.851 -14.4316 2.86228 -22.325 -2.56132e-06 1.19528e-05 0 4.10661 20.7048 -22.2077 -0 0 0 -14.4471 -0.181206 1.42927 -22.8212 6.63691 1.34054 -29.4253 8.38425 2.20539 -19.5377 5.72921 0.987536 -26.6521 5.12653 1.21561 -34.3244 6.43438 1.98931 -22.8285 4.43696 0.896996 -30.3688 -2.89421 -0.784341 -39.0661 -3.60611 -1.28083 -26.0246 -2.51228 -0.578782 -33.3634 -6.2767 -1.88298 -43.0011 -7.76735 -3.06348 -28.5669 -5.46297 -1.3921 -4.26887e-07 1.06722e-07 0 -21.7979 -9.85518 46.5683 -3.55715 -0.154335 4.96714 -3.18055e-15 1.70755e-06 0 -4.10661 20.7048 22.2077 -0 0 0 6.63526 0.0383789 0.662045 10.4429 3.11248 -0.282548 13.4351 3.98725 -0.469805 8.94868 2.67177 -0.205584 12.2135 2.42279 -0.259443 15.7091 3.09958 -0.427958 10.467 2.08087 -0.185575 13.9371 -1.37974 0.172458 17.9213 -1.7625 0.279765 11.9455 -1.18574 0.125115 15.2719 -3.01556 0.405418 19.647 -3.84706 0.665582 13.087 -2.59293 0.296075 34.1591 -18.1512 21.0623 -1.15892 64.3407 0.189746 0.366226 0.0993772 0.82424 -5.39449 -43.3351 -13.507 -61.4815 -48.9297 -71.525 -2.72522 60.7728 1.59786 3.57518e-06 -9.8184e-06 0.0395647 -6.4033e-07 -4.26887e-07 0 
44.689 84.5479 16.4784 -0.336685 11.1142 -32.3746 5.0352 0.00716972 0 1.61907 1.83957 -9.35226 2.24378e-14 7.47052e-07 0 5.37728 7.34025 -4.04665 -2.09618 -4.78186 0.0791294 2.24378e-14 7.47052e-07 0 -32.5327 4.31259 16.2638 -14.5974 2.62224 -20.2631 6.83019e-06 -1.45142e-05 0.0559529 4.10661 20.7048 -22.2077 -0 0 0 -14.282 -0.177108 1.4133 -22.558 6.56503 1.30983 -29.0842 8.29687 2.15622 -19.3129 5.66624 0.965089 -26.3458 5.07215 1.18826 -33.9289 6.36971 1.94474 -22.5665 4.38891 0.876697 -30.0211 -2.86423 -0.769227 -38.6185 -3.57138 -1.25178 -25.7267 -2.48553 -0.567861 -32.9791 -6.21313 -1.84095 -42.5038 -7.69564 -2.99683 -28.2384 -5.40571 -1.36025 2.24378e-14 7.47052e-07 0 -22.0361 -9.54387 44.8795 -3.24751 -0.151912 5.35533 1.4941e-06 -4.69575e-06 0 -4.10661 20.7048 22.2077 -0 0 0 6.61454 0.0381399 0.659676 10.4102 3.10287 -0.285305 13.393 3.97503 -0.466461 8.9207 2.66349 -0.209357 12.1753 2.41534 -0.259443 15.66 3.09014 -0.426125 10.4343 2.07444 -0.189746 13.8935 -1.37551 0.172458 17.8653 -1.75717 0.274112 11.9081 -1.18209 0.125115 15.2241 -3.00637 0.401538 19.5855 -3.83552 0.662045 13.0461 -2.58498 0.296075 35.3732 -18.1365 21.498 -1.13581 64.1601 0.356082 0.51882 0.0840654 0.735947 -5.27147 -41.9402 -13.6788 -62.1397 -49.1001 -71.6471 -2.20508 55.9781 1.17168 -2.77476e-06 8.53774e-06 0.0395647 2.13443e-07 -8.53774e-07 0 
42.7229 83.6964 15.1168 -0.123389 10.7997 -31.9 4.69798 0.00664009 0.0395647 1.56092 1.85386 -8.68353 8.53774e-07 1.06722e-07 0.0395647 6.60417 7.87953 -4.98413 -4.62011 -6.25303 -0.216705 8.53774e-07 1.06722e-07 0.0395647 -30.7209 4.0583 14.5925 -14.402 2.31756 -18.191 -0 -8.53774e-07 0 4.10661 20.7048 -22.2077 -0 0 0 -14.0798 -0.172153 1.39435 -22.2359 6.47683 1.27286 -28.6668 8.18947 2.09584 -19.0377 5.589 0.937944 -25.9709 5.00536 1.15418 -33.4446 6.2901 1.89128 -22.2457 4.32994 0.852251 -29.5953 -2.82737 -0.7486 -38.0703 -3.52855 -1.2169 -25.362 -2.45268 -0.551073 -32.5086 -6.13489 -1.79007 -41.8951 -7.60705 -2.91608 -27.8363 -5.33534 -1.32232 8.53774e-07 1.06722e-07 0.0395647 -22.1278 -9.12644 42.988 -2.9575 -0.14743 5.70587 3.41509e-06 -2.13443e-07 0 -4.10661 20.7048 22.2077 -0 0 0 6.59108 0.03787 0.658488 10.3732 3.09198 -0.282548 13.3454 3.96118 -0.463093 8.889 2.65412 -0.201741 12.132 2.4069 -0.256409 15.6043 3.07945 -0.422435 10.3973 2.06716 -0.189746 13.8442 -1.37073 0.167859 17.8019 -1.75114 0.274112 11.8659 -1.17796 0.111906 15.17 -2.99595 0.401538 19.5158 -3.82244 0.657299 12.9997 -2.57596 0.29342 36.8018 -18.0948 21.8011 -1.10254 63.9295 0.596103 0.756432 0.0583776 0.609091 -5.10569 -40.2773 -13.8433 -62.6877 -49.0049 -71.5464 -1.68446 49.9799 0.784341 2.56132e-06 -2.56132e-06 0.0559529 4.26887e-07 -3.41509e-06 0 
40.5326 82.6713 13.6511 0.0621031 10.4499 -31.2896 4.28646 0.00638058 0 1.50531 1.86774 -7.90986 -4.26887e-07 1.60083e-07 0 8.00245 8.6185 -6.06328 -6.9179 -7.95021 -0.422435 -8.53774e-07 -2.50469e-14 0 -28.7634 3.56556 12.8467 -13.7485 1.97073 -16.2387 6.83019e-06 8.53775e-07 0 4.10661 20.7048 -22.2077 -0 0 0 -13.8417 -0.166409 1.37114 -21.8568 6.37274 1.23161 -28.1757 8.06248 2.02711 -18.7138 5.49792 0.907406 -25.5296 4.92646 1.11696 -32.8748 6.19582 1.82986 -21.8682 4.26036 0.82424 -29.0941 -2.78379 -0.721989 -37.425 -3.47771 -1.17901 -24.9326 -2.41389 -0.532289 -31.9549 -6.04227 -1.73185 -41.1788 -7.50167 -2.82167 -27.363 -5.25216 -1.27838 -8.53774e-07 -2.50469e-14 0 -22.1172 -8.63762 40.9262 -2.71446 -0.141611 5.97127 1.06722e-07 2.13443e-07 0 -4.10661 20.7048 22.2077 -0 0 0 6.56361 0.0375554 0.653717 10.3299 3.07923 -0.276953 13.2896 3.94498 -0.457995 8.85191 2.64315 -0.205584 12.0814 2.39702 -0.256409 15.5391 3.06693 -0.418713 10.3539 2.05864 -0.181308 13.7865 -1.36513 0.158259 17.7277 -1.74408 0.274112 11.8164 -1.17312 0.111906 15.1067 -2.98376 0.395647 19.4342 -3.80713 0.650115 12.9455 -2.56541 0.29074 38.3519 -18.0695 21.949 -1.06245 63.6305 0.906543 1.04812 0.025152 0.420579 -4.8859 -38.425 -13.9375 -63.1923 -48.6423 -71.2892 -1.12687 43.102 0.440574 3.41509e-06 7.68396e-06 0 -2.56132e-06 -9.54166e-15 0 
38.3004 81.5448 12.1663 0.251314 10.103 -30.5865 3.85193 0.00594761 0.0559529 1.46064 1.88154 -7.02358 -2.13443e-07 -5.33608e-08 0 9.40337 9.40123 -7.15439 -8.72056 -9.66064 -0.672601 -2.13443e-07 -5.33608e-08 0 -26.835 2.89301 11.0368 -12.592 1.61949 -14.6 2.98821e-06 -6.83019e-06 0 4.10661 20.7048 -22.2077 -0 0 0 -13.5761 -0.160112 1.34462 -21.4339 6.25624 1.18563 -27.628 7.92007 1.95037 -18.3525 5.39606 0.872222 -25.0372 4.83806 1.07555 -32.239 6.08988 1.76142 -21.447 4.18248 0.792284 -28.5348 -2.7349 -0.695485 -36.7049 -3.42047 -1.13435 -24.4535 -2.37043 -0.514341 -31.3371 -5.93824 -1.66737 -40.3798 -7.3827 -2.71796 -26.8349 -5.15892 -1.23161 -2.13443e-07 -5.33608e-08 0 -22.095 -8.12113 38.7103 -2.52462 -0.135199 6.12981 -1.70755e-06 1.70755e-06 0 -4.10661 20.7048 22.2077 -0 0 0 6.53072 0.0371804 0.651318 10.278 3.06397 -0.276953 13.2228 3.92556 -0.454564 8.80749 2.63001 -0.205584 12.0208 2.38519 -0.247081 15.4611 3.05194 -0.413068 10.302 2.04844 -0.185575 13.7174 -1.35842 0.163129 17.6388 -1.73562 0.268341 11.7572 -1.16732 0.118694 15.0309 -2.96915 0.393664 19.3366 -3.78879 0.646493 12.8805 -2.55277 0.288035 39.8735 -18.1244 21.9454 -1.01742 63.2696 1.23794 1.35859 -0.00943761 0.262442 -4.61993 -36.4967 -13.9262 -63.7438 -48.0229 -71.0036 -0.509575 35.9055 0.163129 -2.56132e-06 -1.36604e-05 0 8.53774e-07 0 0 
